PathFileType	4	(X/Y/Z)	ROM_Ellenbogenflex_R 1.trc
DataRate	CameraRate	NumFrames	NumMarkers	Units	OrigDataRate	OrigDataStartFrame	OrigNumFrames
150	150	17	17	mm	150	1	2047
Frame#	Time	ST1			ST2			ST3			RACR1			RACR2			RACR3			RUA1			RUA2			RUA3			RUA4			RLA1			RLA2			RLA3			RLA4			RH1			RH2			RH3		
		X1	Y1	Z1	X2	Y2	Z2	X3	Y3	Z3	X4	Y4	Z4	X5	Y5	Z5	X6	Y6	Z6	X7	Y7	Z7	X8	Y8	Z8	X9	Y9	Z9	X10	Y10	Z10	X11	Y11	Z11	X12	Y12	Z12	X13	Y13	Z13	X14	Y14	Z14	X15	Y15	Z15	X16	Y16	Z16	X17	Y17	Z17
	
1	0.000000	318.276917	1171.116333	-14.817770	340.634155	1118.990356	18.839563	320.386627	1171.773560	40.855515	244.122223	1258.316650	250.597092	201.288879	1159.726929	264.940155	175.333023	1220.913452	173.215775	260.380768	1075.753784	233.001663	261.227692	1014.312500	237.367691	200.733536	1005.760071	247.810349	202.768692	1069.818726	243.066452	351.166473	721.771118	258.662079	445.221771	708.269409	300.648834	349.406281	670.431458	378.293579	303.502869	693.125488	293.977509	400.768280	629.904785	266.568054	411.274139	590.690491	297.990448	360.993225	615.318726	306.084412
2	0.006667	318.400787	1171.231934	-14.823508	340.467255	1119.033203	18.832035	320.433044	1171.941040	40.824795	244.151184	1258.514038	250.534943	201.033707	1159.610107	264.949707	175.043167	1220.792114	173.259933	260.362610	1075.801392	232.970840	261.223969	1014.333252	237.312195	200.672104	1005.786438	247.810776	203.035187	1070.070068	242.910217	351.195435	721.700989	258.641479	445.214020	708.253723	300.740326	349.477142	670.533081	378.259491	303.447449	693.130188	293.906708	400.627869	629.701294	266.553711	411.200470	590.644714	297.977966	360.938049	614.988464	305.854340
3	0.013333	318.516815	1171.372192	-14.831508	340.265808	1119.090576	18.824413	320.479004	1172.140381	40.782120	244.194870	1258.748291	250.472580	200.760178	1159.510132	264.964569	174.725174	1220.689209	173.313995	260.330750	1075.860596	232.939728	261.217072	1014.367920	237.248093	200.621674	1005.843872	247.804443	203.310104	1070.354614	242.743225	351.203094	721.635010	258.617828	445.223938	708.235657	300.801819	349.492279	670.612244	378.258820	303.373169	693.145935	293.817719	400.463562	629.492249	266.529175	411.112946	590.606567	297.961823	360.883575	614.635437	305.604828
4	0.020000	318.602936	1171.540527	-14.845932	340.027344	1119.168579	18.814438	320.509399	1172.369629	40.722610	244.261414	1259.022827	250.414551	200.487762	1159.453125	264.987732	174.393387	1220.630981	173.379852	260.276428	1075.935791	232.907669	261.203705	1014.421997	237.172440	200.601349	1005.952698	247.782745	203.567398	1070.662842	242.576614	351.175140	721.583984	258.588959	445.273132	708.212708	300.789032	349.473877	670.690308	378.280273	303.275238	693.177429	293.705597	400.279327	629.294189	266.485657	411.006897	590.579102	297.938873	360.837067	614.278625	305.346893
5	0.026667	318.639587	1171.711914	-14.874637	339.801544	1119.260132	18.797142	320.495270	1172.579712	40.652317	244.351624	1259.301147	250.363556	200.276794	1159.461914	265.018768	174.106705	1220.629761	173.449265	260.199768	1076.017456	232.875092	261.181427	1014.486450	237.091751	200.635559	1006.109924	247.737686	203.762512	1070.942505	242.439590	351.117737	721.556274	258.553040	445.380157	708.182434	300.651917	349.492126	670.801514	378.282257	303.171661	693.218872	293.584900	400.110046	629.137268	266.417755	410.892548	590.556519	297.905548	360.808868	613.971375	305.116699
6	0.033333	318.630951	1171.852905	-14.922218	339.661743	1119.348633	18.767416	320.422302	1172.715454	40.583599	244.457306	1259.534424	250.317184	200.175751	1159.530273	265.052887	173.917542	1220.667480	173.510269	260.111786	1076.086792	232.844147	261.152191	1014.542603	237.018219	200.730133	1006.285278	247.670807	203.875290	1071.143311	242.352600	351.056610	721.546936	258.509460	445.541718	708.144348	300.380615	349.588898	670.944946	378.237457	303.091431	693.256714	293.477844	399.992493	629.034729	266.326843	410.788422	590.525940	297.857819	360.804199	613.752930	304.940674
7	0.040000	318.595947	1171.946411	-14.981379	339.637482	1119.419434	18.725489	320.312134	1172.768188	40.526054	244.560913	1259.692749	250.275711	200.174652	1159.624512	265.082245	173.827927	1220.713989	173.555649	260.029266	1076.131104	232.816956	261.123077	1014.576294	236.960510	200.857864	1006.438354	247.596176	203.919205	1071.251709	242.312241	351.015045	721.542847	258.459534	445.728333	708.099854	300.029572	349.751648	671.087524	378.151978	303.051819	693.279053	293.394806	399.937103	628.971130	266.221649	410.707153	590.475708	297.792664	360.820740	613.621033	304.817505
8	0.046667	318.551056	1171.995483	-15.038648	339.691803	1119.466187	18.678444	320.200470	1172.767700	40.483162	244.645905	1259.774170	250.243240	200.226685	1159.709229	265.101013	173.803772	1220.750732	173.585266	259.964417	1076.150024	232.794083	261.101105	1014.584595	236.919830	200.981445	1006.543152	247.529709	203.919876	1071.283936	242.301605	351.000702	721.533386	258.404327	445.907898	708.050781	299.670746	349.944061	671.197632	378.048767	303.051575	693.281250	293.332367	399.930298	628.921265	266.112061	410.649872	590.400818	297.708130	360.852692	613.548218	304.729492
9	0.053333	318.506653	1172.012939	-15.085389	339.766937	1119.490234	18.634335	320.107788	1172.744873	40.454105	244.706116	1259.795410	250.221313	200.291489	1159.766235	265.108429	173.809662	1220.770752	173.603149	259.920227	1076.149780	232.774399	261.089050	1014.572266	236.892258	201.080017	1006.596069	247.479416	203.900223	1071.266846	242.304596	351.010712	721.513367	258.343109	446.066010	707.998535	299.342651	350.138855	671.264343	377.945953	303.080688	693.265076	293.282684	399.951874	628.867981	266.003845	410.610779	590.302307	297.602936	360.894043	613.505249	304.657501
10	0.060000	318.468231	1172.013062	-15.119835	339.826569	1119.497559	18.597332	320.037323	1172.718872	40.435356	244.743805	1259.779297	250.207733	200.347824	1159.793945	265.107300	173.822266	1220.774902	173.614258	259.893524	1076.137695	232.756042	261.086395	1014.546875	236.872208	201.150772	1006.607849	247.445572	203.876236	1071.224243	242.310822	351.038116	721.482605	258.275543	446.204926	707.944580	299.046661	350.323608	671.293457	377.851746	303.128235	693.235840	293.238953	399.984985	628.805054	265.898010	410.582642	590.184631	297.476929	360.940552	613.471191	304.587219
11	0.066667	318.437103	1172.006714	-15.143855	339.859436	1119.494873	18.568277	319.984924	1172.699097	40.422398	244.764709	1259.745972	250.199402	200.388245	1159.798950	265.101318	173.829391	1220.767334	173.622681	259.879395	1076.119629	232.737686	261.091797	1014.515991	236.854950	201.200134	1006.593994	247.424576	203.856857	1071.173218	242.314957	351.075012	721.445190	258.202698	446.334473	707.889587	298.763580	350.494171	671.297119	377.767456	303.185181	693.200928	293.196808	400.018494	628.733826	265.792938	410.559448	590.054199	297.332214	360.989807	613.435242	304.510864
12	0.073333	318.411652	1172.000366	-15.160196	339.868378	1119.487183	18.546257	319.945404	1172.689209	40.412067	244.775223	1259.709595	250.194290	200.413177	1159.789917	265.093719	173.826447	1220.752441	173.631027	259.873474	1076.099976	232.719025	261.104248	1014.485779	236.837723	201.236923	1006.568481	247.411743	203.845749	1071.124390	242.315536	351.114777	721.406799	258.126678	446.464630	707.832520	298.467773	350.649628	671.287415	377.690674	303.244690	693.167419	293.154541	400.047058	628.659790	265.686462	410.537750	589.918213	297.173553	361.040100	613.395020	304.426697
13	0.080000	318.388977	1171.996338	-15.171555	339.861450	1119.478760	18.529182	319.914398	1172.687988	40.403713	244.780319	1259.677490	250.191864	200.426346	1159.773315	265.086731	173.813324	1220.733032	173.640640	259.873169	1076.081787	232.700760	261.122650	1014.460083	236.819244	201.268417	1006.541443	247.402939	203.843460	1071.083618	242.313461	351.152832	721.371765	258.049957	446.601257	707.770813	298.139221	350.790100	671.272095	377.617706	303.301666	693.139893	293.111969	400.069061	628.589355	265.577087	410.516724	589.784241	297.007629	361.089478	613.352295	304.336914
14	0.086667	318.366699	1171.995972	-15.180309	339.846680	1119.473022	18.514589	319.887848	1172.691650	40.398327	244.782257	1259.652466	250.192398	200.432068	1159.753052	265.081665	173.792480	1220.710815	173.652023	259.877258	1076.066895	232.683990	261.145447	1014.440918	236.799103	201.299026	1006.518799	247.395508	203.849213	1071.053345	242.309982	351.186615	721.341125	257.974365	446.742676	707.702454	297.777740	350.915955	671.254700	377.545105	303.352936	693.120117	293.069366	400.084167	628.527283	265.464203	410.497620	589.659302	296.840637	361.135986	613.309509	304.245544
15	0.093333	318.343506	1171.999146	-15.187575	339.829285	1119.473755	18.500650	319.862640	1172.696167	40.396206	244.781113	1259.633545	250.196136	200.434204	1159.730713	265.079071	173.767258	1220.686035	173.665009	259.885254	1076.055298	232.669296	261.171021	1014.428467	236.777176	201.330414	1006.502930	247.388153	203.861664	1071.034058	242.305756	351.214905	721.312866	257.900055	446.877777	707.628784	297.413483	351.027405	671.235352	377.470612	303.396973	693.107727	293.026886	400.092529	628.475403	265.347992	410.482544	589.548401	296.676849	361.178406	613.267883	304.156067
16	0.100000	318.318787	1172.005371	-15.193222	339.811859	1119.482178	18.486404	319.838043	1172.700073	40.395840	244.776245	1259.618652	250.202942	200.436111	1159.706421	265.078888	173.740051	1220.659302	173.678970	259.897217	1076.045288	232.656113	261.198151	1014.421326	236.753250	201.362534	1006.493286	247.380417	203.879364	1071.023315	242.300552	351.237274	721.283569	257.825287	446.991669	707.553040	297.092438	351.123993	671.212830	377.393188	303.433167	693.099915	292.983856	400.095032	628.432678	265.228851	410.473114	589.453857	296.518341	361.216431	613.227539	304.070129
17	0.106667	318.293121	1172.012817	-15.197276	339.795166	1119.496582	18.471418	319.814850	1172.703125	40.395378	244.767731	1259.604980	250.212585	200.440338	1159.679077	265.080444	173.712189	1220.630737	173.693558	259.912811	1076.034790	232.642975	261.225769	1014.416931	236.727432	201.394913	1006.487061	247.372314	203.900894	1071.016724	242.293823	351.253906	721.250610	257.748016	447.075806	707.477417	296.842804	351.205017	671.185669	377.312073	303.461578	693.092773	292.938324	400.093109	628.396057	265.106812	410.469482	589.374634	296.365570	361.250153	613.187988	303.987885
